<svg width="64" height="64" viewBox="0 0 64 64" fill="none" xmlns="http://www.w3.org/2000/svg">
<path d="M21.3923 53.7321C20.9397 54.1848 20.3821 54.409 19.7196 54.4048C19.0571 54.4007 18.4967 54.1694 18.0384 53.7111L9.35101 45.0237C8.89269 44.5654 8.66144 44.005 8.65728 43.3425C8.65312 42.68 8.87735 42.1224 9.32996 41.6698L19.1433 31.8565L9.70595 22.4191C9.24763 21.9608 9.01638 21.4004 9.01222 20.7379C9.00806 20.0754 9.23229 19.5178 9.68489 19.0652L19.0662 9.68392C19.5188 9.23131 20.0764 9.00709 20.7389 9.01125C21.4014 9.01541 21.9618 9.24665 22.4201 9.70498L31.8575 19.1423L41.6708 9.32898C42.1234 8.87638 42.681 8.65215 43.3435 8.65631C44.006 8.66047 44.5664 8.89171 45.0247 9.35003L53.7121 18.0374C54.1704 18.4957 54.4016 19.0561 54.4058 19.7186C54.41 20.3811 54.1857 20.9387 53.7331 21.3913L43.9198 31.2046L53.6696 40.9545C54.1279 41.4128 54.3592 41.9732 54.3633 42.6357C54.3675 43.2982 54.1433 43.8558 53.6907 44.3084L44.3094 53.6897C43.8568 54.1423 43.2992 54.3665 42.6367 54.3624C41.9742 54.3582 41.4138 54.127 40.9555 53.6686L31.2056 43.9188L21.3923 53.7321Z" fill="white"/>
</svg>
