<svg width="64" height="64" viewBox="0 0 64 64" fill="none" xmlns="http://www.w3.org/2000/svg">
<path d="M44.2798 36.4972H59V7.05689H44.2798V36.4972ZM12.5726 36.4972H25.0258L20.5509 51.0408C19.6088 54.0731 22.0818 57.1055 25.4969 57.1055C27.2044 57.1055 28.8531 56.3989 29.9718 55.1918L47.2239 36.4972V7.05689H16.5176C13.3969 7.05689 10.6884 9.02939 10.0702 11.7968L6.12515 29.461C5.33026 33.1116 8.42149 36.4972 12.5726 36.4972ZM47.2239 10.0009H56.056V33.5532H47.2239V10.0009ZM9.0103 30.1087L12.9553 12.4445C13.2497 11.0313 14.7512 10.0009 16.5176 10.0009H44.2798V35.3491L27.7932 53.1899C27.2339 53.8082 26.3801 54.1614 25.4969 54.1614C24.7314 54.1614 24.0249 53.8376 23.6421 53.2782C23.4361 52.9838 23.2005 52.5128 23.3772 51.8945L27.8521 37.351L29.0297 33.5532H25.0553H12.602C11.395 33.5532 10.2468 33.0527 9.56966 32.1989C9.18694 31.7573 8.80422 31.0213 9.0103 30.1087Z" fill="black"/>
</svg>
