<svg width="64" height="64" viewBox="0 0 64 64" fill="none" xmlns="http://www.w3.org/2000/svg">
<path d="M32.8325 41.5215H27.335C27.3547 39.629 27.5222 38.0815 27.8374 36.879C28.1724 35.6568 28.7143 34.543 29.4631 33.5376C30.2118 32.5323 31.2069 31.3889 32.4483 30.1075C33.3547 29.181 34.1823 28.3136 34.931 27.5054C35.6995 26.6774 36.3202 25.7903 36.7931 24.8441C37.266 23.8781 37.5025 22.7249 37.5025 21.3844C37.5025 20.0242 37.2562 18.8513 36.7635 17.8656C36.2906 16.8799 35.5813 16.121 34.6355 15.5887C33.7094 15.0565 32.5567 14.7903 31.1773 14.7903C30.0345 14.7903 28.9507 14.9973 27.9261 15.4113C26.9015 15.8253 26.0739 16.4659 25.4433 17.3333C24.8128 18.181 24.4877 19.2948 24.468 20.6747H19C19.0394 18.4471 19.5911 16.5349 20.6552 14.9382C21.7389 13.3414 23.197 12.1192 25.0296 11.2715C26.8621 10.4238 28.9113 10 31.1773 10C33.6798 10 35.8079 10.4534 37.5616 11.3602C39.335 12.267 40.6847 13.5681 41.6108 15.2634C42.5369 16.9391 43 18.9301 43 21.2366C43 23.0108 42.6355 24.647 41.9064 26.1452C41.197 27.6237 40.2808 29.0134 39.1576 30.3145C38.0345 31.6156 36.8424 32.8575 35.5813 34.0403C34.4975 35.0457 33.7685 36.1792 33.3941 37.4409C33.0197 38.7025 32.8325 40.0627 32.8325 41.5215ZM27.0985 50.8952C27.0985 50.0081 27.3744 49.259 27.9261 48.6479C28.4778 48.0367 29.2759 47.7312 30.3202 47.7312C31.3842 47.7312 32.1921 48.0367 32.7438 48.6479C33.2956 49.259 33.5714 50.0081 33.5714 50.8952C33.5714 51.7428 33.2956 52.4722 32.7438 53.0833C32.1921 53.6944 31.3842 54 30.3202 54C29.2759 54 28.4778 53.6944 27.9261 53.0833C27.3744 52.4722 27.0985 51.7428 27.0985 50.8952Z" fill="white"/>
</svg>
