<svg width="64" height="64" viewBox="0 0 64 64" fill="none" xmlns="http://www.w3.org/2000/svg">
<path d="M20.7202 27.6649H6V57.1052H20.7202V27.6649ZM52.4274 27.6649H39.9742L44.4491 13.1214C45.3912 10.089 42.9182 7.05664 39.5031 7.05664C37.7956 7.05664 36.1469 7.76321 35.0282 8.97026L17.7761 27.6649V57.1052H48.4824C51.6031 57.1052 54.3116 55.1327 54.9298 52.3653L58.8748 34.7011C59.6697 31.0505 56.5785 27.6649 52.4274 27.6649ZM17.7761 54.1612H8.94403V30.6089H17.7761V54.1612ZM55.9897 34.0534L52.0447 51.7176C51.7503 53.1308 50.2488 54.1612 48.4824 54.1612H20.7202V28.8131L37.2068 10.9722C37.7661 10.354 38.6199 10.0007 39.5031 10.0007C40.2686 10.0007 40.9751 10.3245 41.3579 10.8839C41.5639 11.1783 41.7995 11.6493 41.6228 12.2676L37.1479 26.8111L35.9703 30.6089H39.9447H52.398C53.605 30.6089 54.7532 31.1094 55.4303 31.9632C55.8131 32.4048 56.1958 33.1408 55.9897 34.0534Z" fill="black"/>
</svg>
