<svg width="800" height="400" viewBox="0 0 800 400" fill="none" xmlns="http://www.w3.org/2000/svg">
<g clip-path="url(#clip0_992_2)">
<rect width="800" height="400" fill="white"/>
<path d="M651 289V197V189.47C651 187.134 649.505 185.06 647.289 184.321C646.603 184.093 645.878 184.003 645.157 184.059L642.746 184.244C635.936 184.768 630.062 189.228 627.727 195.647L627.626 195.925C627.188 195.903 626.662 195.876 626.06 195.846C624.159 195.752 621.502 195.627 618.479 195.502C612.439 195.252 604.905 195 599 195C593.095 195 585.561 195.252 579.521 195.502C576.498 195.627 573.841 195.752 571.94 195.846C571.338 195.876 570.812 195.903 570.374 195.925L570.273 195.647C567.938 189.228 562.064 184.768 555.254 184.244L552.843 184.059C552.122 184.003 551.397 184.093 550.711 184.321C548.495 185.06 547 187.134 547 189.47V289C547 294.523 551.477 299 557 299H561.5H566.486L572.259 311.153C573.013 312.74 574.39 313.945 576.063 314.48L576.478 314.613C577.468 314.93 578.532 314.93 579.522 314.613C581.694 313.918 583.119 311.841 582.986 309.565L582.37 299H586.5H599H611.5H615.63L615.014 309.565C614.881 311.841 616.306 313.918 618.478 314.613C619.468 314.93 620.532 314.93 621.522 314.613L621.937 314.48C623.61 313.945 624.987 312.74 625.741 311.153L631.514 299H636.5H641C646.523 299 651 294.523 651 289Z" fill="#FFE19A" stroke="#FF933A" stroke-width="4"/>
<path d="M85.211 298.318C85.443 298.142 85.6678 298.033 85.8853 297.993C86.3077 297.914 86.7112 298.123 87.0958 298.62C87.3069 298.899 87.434 299.153 87.4772 299.383C87.5563 299.806 87.3574 300.194 86.8806 300.548L75.1377 309.146L89.1961 312.912C89.7688 313.069 90.0947 313.359 90.1738 313.782C90.2169 314.012 90.1905 314.295 90.0944 314.631C89.9159 315.234 89.6155 315.575 89.1931 315.654C88.9756 315.695 88.7268 315.675 88.4469 315.595L72.1606 311.075C71.8119 310.981 71.5479 310.845 71.3688 310.667C71.1897 310.488 71.0702 310.239 71.0102 309.919C70.9503 309.599 70.9716 309.324 71.074 309.092C71.1764 308.861 71.3732 308.639 71.6644 308.426L85.211 298.318ZM95.6879 290.811C96.1231 290.73 96.4494 290.775 96.6669 290.946C96.8949 291.102 97.0532 291.417 97.1419 291.89L98.9324 301.451C99.5318 300.053 100.314 298.927 101.28 298.07C102.256 297.198 103.377 296.644 104.644 296.407C105.809 296.189 106.868 296.255 107.821 296.607C108.772 296.945 109.567 297.545 110.205 298.406C110.843 299.266 111.281 300.33 111.518 301.597L113.258 310.889L114.833 310.594C115.268 310.512 115.594 310.557 115.812 310.729C116.04 310.885 116.198 311.199 116.287 311.673C116.375 312.146 116.343 312.504 116.189 312.744C116.046 312.97 115.757 313.123 115.322 313.205L109.102 314.37C108.666 314.451 108.335 314.414 108.107 314.258C107.889 314.087 107.736 313.764 107.648 313.291C107.559 312.817 107.586 312.468 107.729 312.242C107.883 312.002 108.177 311.84 108.613 311.759L110.379 311.428L108.693 302.425C108.479 301.285 108.048 300.432 107.398 299.865C106.749 299.298 105.912 299.11 104.889 299.302C103.801 299.506 102.842 300.01 102.012 300.814C101.196 301.616 100.609 302.62 100.252 303.827C99.8947 305.033 99.8432 306.314 100.097 307.671L101.126 313.161L102.892 312.83C103.327 312.749 103.653 312.794 103.871 312.965C104.099 313.121 104.257 313.436 104.346 313.909C104.434 314.383 104.402 314.74 104.248 314.981C104.105 315.206 103.816 315.36 103.381 315.441L97.1608 316.606C96.7256 316.688 96.3941 316.65 96.1662 316.494C95.9487 316.323 95.7955 316.001 95.7069 315.527C95.6182 315.054 95.6454 314.704 95.7887 314.479C95.9423 314.238 96.2367 314.077 96.6718 313.995L98.246 313.7L94.5067 293.735L92.7406 294.066C92.3054 294.147 91.9739 294.11 91.746 293.954C91.5284 293.783 91.3753 293.461 91.2866 292.987C91.198 292.513 91.2252 292.164 91.3684 291.938C91.5221 291.698 91.8165 291.537 92.2516 291.455L95.6879 290.811ZM122.301 287.874C122.826 287.776 123.215 287.802 123.469 287.953C123.722 288.104 123.891 288.404 123.975 288.852L125.053 294.611L132.944 293.133C133.379 293.052 133.705 293.097 133.923 293.268C134.15 293.424 134.309 293.739 134.397 294.212C134.486 294.686 134.454 295.043 134.3 295.284C134.157 295.509 133.868 295.663 133.432 295.744L125.542 297.222L126.851 304.21C127.124 305.669 127.574 306.691 128.2 307.276C128.839 307.858 129.786 308.032 131.04 307.797C131.898 307.636 132.767 307.295 133.65 306.772C134.532 306.249 135.361 305.617 136.136 304.875C136.291 304.714 136.478 304.613 136.695 304.572C137.13 304.49 137.557 304.715 137.974 305.246C138.203 305.548 138.34 305.82 138.386 306.064C138.462 306.473 138.313 306.845 137.939 307.181C137.058 307.995 136.042 308.721 134.89 309.361C133.736 309.988 132.627 310.401 131.565 310.6C129.389 311.007 127.69 310.743 126.468 309.806C125.257 308.854 124.44 307.251 124.018 304.999L122.663 297.761L118.766 298.491C118.33 298.573 117.999 298.536 117.771 298.379C117.553 298.208 117.4 297.886 117.312 297.412C117.223 296.939 117.25 296.589 117.393 296.364C117.547 296.123 117.841 295.962 118.277 295.88L122.174 295.151L121.095 289.391C121.011 288.943 121.06 288.603 121.242 288.37C121.423 288.138 121.776 287.972 122.301 287.874ZM163.805 301.422C164.24 301.341 164.567 301.385 164.784 301.557C165.012 301.713 165.171 302.027 165.259 302.501C165.348 302.974 165.315 303.332 165.162 303.572C165.019 303.798 164.729 303.951 164.294 304.033L161.434 304.569C160.999 304.65 160.667 304.613 160.439 304.457C160.222 304.286 160.069 303.963 159.98 303.49L157.851 292.125C157.686 291.242 157.415 290.61 157.04 290.23C156.674 289.835 156.171 289.697 155.532 289.817C154.93 289.93 154.426 290.316 154.02 290.975C153.611 291.621 153.346 292.472 153.226 293.528C153.116 294.568 153.18 295.722 153.417 296.989L154.571 303.151L155.666 302.946C156.101 302.865 156.427 302.91 156.645 303.081C156.873 303.237 157.031 303.552 157.12 304.025C157.208 304.499 157.176 304.856 157.022 305.097C156.879 305.322 156.59 305.476 156.155 305.557L153.39 306.075C152.955 306.157 152.623 306.119 152.396 305.963C152.178 305.792 152.025 305.47 151.936 304.996L149.808 293.631C149.642 292.748 149.372 292.117 148.996 291.737C148.63 291.341 148.128 291.204 147.488 291.324C146.886 291.436 146.382 291.822 145.976 292.481C145.567 293.127 145.302 293.978 145.182 295.034C145.072 296.075 145.136 297.228 145.373 298.496L146.528 304.658L147.526 304.471C147.961 304.389 148.287 304.434 148.505 304.606C148.733 304.762 148.891 305.076 148.98 305.55C149.069 306.023 149.036 306.381 148.882 306.621C148.739 306.847 148.45 307 148.015 307.082L142.563 308.103C142.128 308.184 141.796 308.147 141.568 307.991C141.351 307.82 141.198 307.498 141.109 307.024C141.02 306.55 141.047 306.201 141.191 305.975C141.344 305.735 141.639 305.574 142.074 305.492L143.648 305.197L141.304 292.68L139.73 292.975C139.294 293.057 138.963 293.02 138.735 292.864C138.517 292.692 138.364 292.37 138.276 291.896C138.187 291.423 138.214 291.073 138.357 290.848C138.511 290.607 138.805 290.446 139.241 290.364L142.101 289.829C142.536 289.747 142.862 289.792 143.08 289.963C143.308 290.119 143.466 290.434 143.555 290.908L143.911 292.808C144.236 291.502 144.726 290.476 145.381 289.731C146.034 288.973 146.808 288.51 147.704 288.342C148.575 288.179 149.391 288.331 150.154 288.797C150.917 289.264 151.521 290.045 151.964 291.141C152.669 288.611 153.924 287.177 155.729 286.839C156.484 286.698 157.192 286.764 157.852 287.038C158.524 287.296 159.105 287.783 159.597 288.499C160.099 289.2 160.455 290.114 160.666 291.24L162.615 301.645L163.805 301.422ZM172.574 276.412C173.009 276.33 173.335 276.375 173.553 276.546C173.781 276.702 173.939 277.017 174.028 277.491L178.011 298.761L184.174 297.607C184.609 297.526 184.935 297.571 185.153 297.742C185.381 297.898 185.539 298.213 185.628 298.686C185.716 299.16 185.684 299.517 185.53 299.758C185.387 299.983 185.098 300.137 184.663 300.218L169.612 303.037C169.177 303.118 168.845 303.081 168.617 302.925C168.4 302.754 168.247 302.432 168.158 301.958C168.069 301.484 168.097 301.135 168.24 300.909C168.394 300.669 168.688 300.508 169.123 300.426L175.132 299.301L171.393 279.335L166.152 280.317C165.717 280.398 165.385 280.361 165.157 280.205C164.94 280.034 164.786 279.712 164.698 279.238C164.609 278.764 164.636 278.415 164.78 278.189C164.933 277.949 165.228 277.788 165.663 277.706L172.574 276.412ZM206.507 283.171C206.856 283.265 207.12 283.401 207.299 283.579C207.478 283.758 207.598 284.007 207.658 284.327C207.718 284.647 207.696 284.922 207.594 285.153C207.492 285.385 207.295 285.607 207.004 285.82L193.457 295.928C193.225 296.104 193 296.212 192.783 296.253C192.36 296.332 191.957 296.123 191.572 295.626C191.361 295.347 191.234 295.093 191.191 294.862C191.112 294.44 191.311 294.052 191.787 293.697L203.53 285.1L189.472 281.334C188.899 281.177 188.573 280.887 188.494 280.464C188.451 280.234 188.478 279.951 188.574 279.615C188.752 279.012 189.052 278.671 189.475 278.592C189.692 278.551 189.941 278.57 190.221 278.651L206.507 283.171Z" fill="black"/>
<path d="M191.351 256.641C191.64 256.61 191.889 256.634 192.096 256.712C192.498 256.863 192.735 257.25 192.807 257.875C192.844 258.223 192.821 258.506 192.739 258.726C192.588 259.128 192.217 259.357 191.626 259.414L177.128 260.696L187.211 271.192C187.62 271.623 187.748 272.04 187.598 272.442C187.515 272.662 187.346 272.89 187.09 273.128C186.625 273.552 186.192 273.688 185.79 273.537C185.582 273.46 185.38 273.314 185.181 273.101L173.583 260.807C173.333 260.546 173.177 260.293 173.116 260.048C173.055 259.802 173.082 259.527 173.196 259.222C173.31 258.918 173.471 258.693 173.678 258.548C173.886 258.403 174.169 258.315 174.529 258.283L191.351 256.641ZM207.16 264.381C209.452 265.24 210.979 266.397 211.741 267.85C212.503 269.304 212.507 271.037 211.753 273.049L209.025 280.328C208.664 281.291 208.886 281.923 209.691 282.225L210.331 282.465C210.745 282.62 211.001 282.827 211.099 283.086C211.213 283.338 211.186 283.689 211.017 284.14C210.848 284.591 210.635 284.88 210.379 285.007C210.14 285.126 209.813 285.107 209.398 284.952L208.228 284.513C207.436 284.216 206.826 283.765 206.399 283.16C205.989 282.548 205.843 281.825 205.96 280.993C204.631 281.496 203.292 281.766 201.943 281.803C200.607 281.844 199.286 281.621 197.982 281.132C196.75 280.67 195.737 280.054 194.941 279.283C194.162 278.504 193.655 277.612 193.421 276.606C193.186 275.6 193.276 274.543 193.692 273.433C194.414 271.507 195.635 270.345 197.356 269.947C199.081 269.536 201.035 269.74 203.217 270.558C205.156 271.285 206.893 272.29 208.427 273.575L209.01 272.02C209.453 270.838 209.443 269.846 208.978 269.046C208.529 268.239 207.568 267.558 206.092 267.005C205.178 266.663 204.179 266.434 203.095 266.32C202.012 266.206 200.94 266.208 199.881 266.325C199.633 266.357 199.423 266.341 199.253 266.277C198.85 266.127 198.625 265.708 198.576 265.022C198.551 264.68 198.576 264.411 198.649 264.215C198.809 263.789 199.158 263.544 199.696 263.482C200.921 263.329 202.171 263.332 203.447 263.49C204.739 263.641 205.977 263.938 207.16 264.381ZM202.269 273.144C200.867 272.618 199.666 272.446 198.666 272.628C197.683 272.802 196.995 273.413 196.602 274.461C196.269 275.352 196.313 276.161 196.735 276.889C197.174 277.61 197.949 278.178 199.058 278.594C201.484 279.504 204.05 279.318 206.755 278.037L207.502 276.044C206.773 275.465 205.959 274.93 205.058 274.44C204.162 273.937 203.232 273.505 202.269 273.144ZM235.613 281.178C235.863 281.439 236.019 281.692 236.08 281.937C236.141 282.182 236.114 282.458 236 282.762C235.886 283.067 235.725 283.292 235.518 283.437C235.31 283.582 235.027 283.67 234.667 283.702L217.845 285.344C217.556 285.374 217.307 285.351 217.1 285.273C216.698 285.122 216.461 284.734 216.389 284.11C216.352 283.762 216.375 283.479 216.457 283.259C216.608 282.857 216.979 282.627 217.57 282.571L232.068 281.289L221.985 270.793C221.577 270.362 221.448 269.945 221.598 269.543C221.681 269.323 221.85 269.095 222.106 268.857C222.571 268.433 223.004 268.297 223.406 268.447C223.614 268.525 223.816 268.671 224.015 268.884L235.613 281.178Z" fill="black"/>
<path d="M47.7226 198.98C47.9945 199.084 48.2052 199.218 48.3547 199.381C48.6449 199.698 48.6802 200.151 48.4607 200.74C48.3358 201.067 48.1869 201.309 48.014 201.467C47.6971 201.757 47.2623 201.794 46.7098 201.576L33.2078 196.143L37.4331 210.07C37.6016 210.64 37.5274 211.07 37.2105 211.36C37.0376 211.518 36.7832 211.645 36.4472 211.741C35.8408 211.908 35.3925 211.833 35.1023 211.516C34.9528 211.352 34.8382 211.131 34.7583 210.851L29.998 194.633C29.8934 194.287 29.8696 193.991 29.9265 193.745C29.9834 193.499 30.1319 193.266 30.372 193.046C30.6121 192.826 30.8573 192.699 31.1077 192.664C31.358 192.629 31.6508 192.678 31.9858 192.813L47.7226 198.98ZM59.2334 203.482C59.5324 203.808 59.6666 204.109 59.636 204.384C59.6239 204.66 59.4401 204.961 59.0848 205.286L52.4154 211.393C55.1343 211.181 57.3203 211.978 58.9734 213.783C60.0638 214.974 60.7565 216.299 61.0517 217.759C61.3565 219.21 61.2269 220.688 60.663 222.193C60.1086 223.69 59.1208 225.088 57.6996 226.39C56.2783 227.691 54.7933 228.557 53.2445 228.986C51.7054 229.407 50.2216 229.406 48.7933 228.984C47.3746 228.553 46.12 227.742 45.0296 226.551C44.1679 225.61 43.5834 224.547 43.2761 223.363C42.9688 222.179 42.9319 220.924 43.1653 219.598L42.013 220.654C41.6577 220.979 41.3372 221.14 41.0517 221.137C40.7845 221.134 40.5015 220.969 40.2025 220.643L38.1053 218.353C37.8063 218.026 37.6629 217.725 37.6751 217.449C37.7056 217.174 37.8985 216.874 38.2538 216.548C38.6092 216.223 38.9204 216.061 39.1876 216.064C39.4731 216.067 39.7654 216.232 40.0643 216.559L41.1459 217.74L56.1268 204.022L54.7814 202.553C54.4825 202.227 54.3391 201.925 54.3512 201.649C54.3818 201.374 54.5747 201.074 54.93 200.749C55.2853 200.423 55.5966 200.262 55.8637 200.265C56.1493 200.268 56.4415 200.433 56.7405 200.759L59.2334 203.482ZM56.7096 215.591C55.927 214.737 55.0359 214.149 54.0362 213.828C53.0454 213.518 52.0092 213.504 50.9276 213.788C49.8548 214.082 48.8191 214.686 47.8203 215.601C46.8216 216.515 46.1288 217.494 45.7419 218.537C45.3638 219.589 45.286 220.623 45.5086 221.637C45.74 222.661 46.247 223.6 47.0296 224.455C47.8122 225.309 48.6866 225.859 49.6527 226.105C50.6284 226.341 51.6263 226.284 52.6463 225.932C53.6751 225.591 54.6649 224.984 55.6156 224.114C56.5663 223.243 57.2571 222.311 57.6879 221.316C58.1276 220.331 58.2677 219.346 58.1083 218.362C57.9584 217.37 57.4922 216.446 56.7096 215.591ZM74.4452 230.68C75.6499 231.996 76.4381 233.454 76.81 235.056C77.1819 236.657 77.1074 238.244 76.5866 239.815C76.0843 241.387 75.1657 242.785 73.8308 244.007C72.496 245.229 71.0186 246.026 69.3987 246.397C67.7972 246.769 66.2151 246.699 64.6524 246.188C63.0897 245.677 61.7061 244.763 60.5014 243.448C59.2967 242.132 58.5085 240.673 58.1366 239.072C57.7647 237.47 57.83 235.884 58.3323 234.311C58.8531 232.74 59.7809 231.343 61.1158 230.121C62.4506 228.898 63.9188 228.101 65.5203 227.73C67.1402 227.358 68.7315 227.429 70.2942 227.94C71.8568 228.451 73.2405 229.364 74.4452 230.68ZM72.3133 232.632C71.4603 231.7 70.502 231.068 69.4384 230.736C68.3932 230.404 67.325 230.385 66.2338 230.678C65.1522 230.962 64.1409 231.535 63.1998 232.397C62.2587 233.258 61.5942 234.22 61.2065 235.281C60.8284 236.333 60.7539 237.399 60.9828 238.478C61.2302 239.558 61.7804 240.564 62.6333 241.496C63.4863 242.427 64.4353 243.059 65.4806 243.39C66.5442 243.723 67.6168 243.747 68.6984 243.463C69.7896 243.17 70.8057 242.593 71.7468 241.731C72.6879 240.869 73.3475 239.912 73.7256 238.86C74.1134 237.798 74.1835 236.728 73.9362 235.648C73.7072 234.569 73.1662 233.563 72.3133 232.632ZM100.518 248.569C100.817 248.895 100.951 249.196 100.92 249.471C100.908 249.747 100.725 250.048 100.369 250.373L84.4088 264.987L85.4904 266.169C85.7893 266.495 85.9236 266.796 85.893 267.071C85.8809 267.347 85.6971 267.648 85.3418 267.973C84.9865 268.298 84.6661 268.459 84.3805 268.456C84.1134 268.453 83.8303 268.289 83.5313 267.962L81.4341 265.672C81.1352 265.346 80.9917 265.044 81.0039 264.768C81.0344 264.493 81.2274 264.193 81.5827 263.868L82.7351 262.813C81.3936 262.929 80.1467 262.782 78.9943 262.371C77.842 261.961 76.8349 261.286 75.9732 260.344C74.8828 259.154 74.1852 257.833 73.8805 256.382C73.5853 254.922 73.7149 253.444 74.2692 251.947C74.8332 250.442 75.8257 249.039 77.247 247.738C78.6683 246.436 80.1485 245.575 81.6877 245.155C83.2364 244.725 84.7202 244.726 86.1389 245.157C87.5672 245.579 88.8266 246.386 89.9169 247.577C91.5701 249.382 92.1715 251.63 91.7214 254.319L97.4112 249.109L95.2745 246.776C94.9755 246.449 94.8321 246.148 94.8442 245.872C94.8748 245.597 95.0677 245.297 95.423 244.971C95.7783 244.646 96.0896 244.485 96.3567 244.487C96.6423 244.49 96.9345 244.655 97.2335 244.982L100.518 248.569ZM87.9169 249.673C87.1343 248.818 86.2552 248.273 85.2795 248.036C84.3134 247.791 83.3159 247.839 82.2871 248.181C81.2671 248.532 80.2817 249.143 79.331 250.014C78.3803 250.884 77.6851 251.812 77.2455 252.797C76.8146 253.792 76.6741 254.786 76.8239 255.778C76.9833 256.762 77.4544 257.682 78.237 258.536C79.0196 259.391 79.9063 259.974 80.8972 260.285C81.8968 260.605 82.933 260.619 84.0058 260.325C85.0874 260.041 86.1275 259.441 87.1263 258.527C88.125 257.612 88.8134 256.629 89.1915 255.576C89.5784 254.534 89.6562 253.5 89.4248 252.476C89.2021 251.462 88.6995 250.527 87.9169 249.673ZM113.131 273.565C113.43 273.891 113.564 274.192 113.533 274.467C113.521 274.743 113.338 275.044 112.982 275.369C112.627 275.695 112.307 275.856 112.021 275.852C111.754 275.85 111.471 275.685 111.172 275.359L110.354 274.466L92.8882 279.627C91.0394 280.172 89.4775 280.482 88.2025 280.554C86.9274 280.627 85.7789 280.443 84.757 280.002C83.7342 279.579 82.7155 278.852 81.7011 277.821C81.3837 277.494 81.2327 277.156 81.2481 276.806C81.2539 276.465 81.4825 276.088 81.9338 275.675C82.558 275.104 83.1175 275.059 83.6124 275.542C84.5046 276.42 85.3265 277.009 86.0782 277.309C86.8387 277.619 87.7425 277.709 88.7896 277.58C89.8359 277.47 91.3298 277.135 93.2714 276.575L98.7865 261.833L97.9555 260.925C97.6565 260.599 97.5131 260.297 97.5253 260.021C97.5558 259.746 97.7487 259.446 98.1041 259.121C98.4594 258.795 98.7706 258.634 99.0378 258.636C99.3233 258.64 99.6156 258.805 99.9145 259.131L104.584 264.231C104.883 264.557 105.017 264.858 104.986 265.133C104.974 265.409 104.791 265.71 104.435 266.035C104.08 266.36 103.759 266.521 103.474 266.518C103.207 266.515 102.924 266.351 102.625 266.024L100.936 264.181L96.5605 275.655L108.204 272.118L107.03 270.836C106.731 270.509 106.588 270.208 106.6 269.932C106.63 269.657 106.823 269.357 107.179 269.031C107.534 268.706 107.845 268.544 108.112 268.547C108.398 268.55 108.69 268.715 108.989 269.042L113.131 273.565ZM124.632 293.992C124.736 294.337 124.76 294.633 124.703 294.879C124.646 295.126 124.498 295.359 124.258 295.579C124.018 295.799 123.772 295.926 123.522 295.961C123.272 295.996 122.979 295.946 122.644 295.812L106.907 289.645C106.635 289.541 106.425 289.407 106.275 289.244C105.985 288.927 105.95 288.474 106.169 287.884C106.294 287.558 106.443 287.316 106.616 287.157C106.933 286.867 107.367 286.831 107.92 287.049L121.422 292.482L117.197 278.555C117.028 277.985 117.102 277.555 117.419 277.265C117.592 277.107 117.847 276.98 118.183 276.884C118.789 276.717 119.237 276.792 119.527 277.109C119.677 277.272 119.792 277.494 119.871 277.774L124.632 293.992Z" fill="black"/>
<path d="M5.27734 304.375C5.27734 302.63 5.60937 300.898 6.27344 299.18C6.50781 298.555 6.9375 298.242 7.5625 298.242C7.70573 298.242 7.875 298.262 8.07031 298.301C8.8125 298.483 9.18359 298.809 9.18359 299.277C9.18359 299.421 9.15104 299.577 9.08594 299.746C8.44792 301.4 8.12891 302.943 8.12891 304.375C8.12891 307.005 9.54167 308.32 12.3672 308.32L14.5156 308.32L14.5156 301.562C14.5156 301.12 14.6198 300.807 14.8281 300.625C15.0234 300.43 15.362 300.332 15.8437 300.332C16.3255 300.332 16.6706 300.43 16.8789 300.625C17.0742 300.807 17.1719 301.12 17.1719 301.562L17.1719 308.32L28.3437 308.32L28.3437 301.562C28.3437 301.12 28.4479 300.807 28.6562 300.625C28.8516 300.43 29.1901 300.332 29.6719 300.332C30.1536 300.332 30.4987 300.43 30.707 300.625C30.9023 300.807 31 301.12 31 301.562L31 315.117C31 315.56 30.9023 315.879 30.707 316.074C30.4987 316.257 30.1536 316.348 29.6719 316.348C29.1901 316.348 28.8516 316.257 28.6562 316.074C28.4479 315.879 28.3437 315.56 28.3437 315.117L28.3437 311.25L17.1719 311.25L17.1719 315.117C17.1719 315.56 17.0742 315.879 16.8789 316.074C16.6706 316.257 16.3255 316.348 15.8437 316.348C15.362 316.348 15.0234 316.257 14.8281 316.074C14.6198 315.879 14.5156 315.56 14.5156 315.117L14.5156 311.25L12.1133 311.25C9.96484 311.25 8.29167 310.651 7.09375 309.453C5.88281 308.242 5.27734 306.549 5.27734 304.375ZM5.375 283.516C5.375 283.073 5.47917 282.76 5.6875 282.578C5.88281 282.383 6.22135 282.285 6.70312 282.285L28.3437 282.285L28.3437 276.016C28.3437 275.573 28.4479 275.26 28.6562 275.078C28.8516 274.883 29.1901 274.785 29.6719 274.785C30.1536 274.785 30.4987 274.883 30.707 275.078C30.9023 275.26 31 275.573 31 276.016L31 291.328C31 291.771 30.9023 292.09 30.707 292.285C30.4987 292.467 30.1536 292.559 29.6719 292.559C29.1901 292.559 28.8516 292.467 28.6562 292.285C28.4479 292.09 28.3437 291.771 28.3437 291.328L28.3437 285.215L8.03125 285.215L8.03125 290.547C8.03125 290.99 7.93359 291.309 7.73828 291.504C7.52995 291.686 7.18489 291.777 6.70312 291.777C6.22135 291.777 5.88281 291.686 5.6875 291.504C5.47917 291.309 5.375 290.99 5.375 290.547L5.375 283.516ZM12.5234 259.863C12.5234 257.975 12.9075 256.367 13.6758 255.039C14.431 253.698 15.4857 252.669 16.8398 251.953C18.181 251.237 19.7305 250.827 21.4883 250.723C21.931 250.723 22.2435 250.82 22.4258 251.016C22.6081 251.198 22.6992 251.51 22.6992 251.953L22.6992 266.094C24.6393 266.003 26.1107 265.43 27.1133 264.375C28.1029 263.307 28.5977 261.803 28.5977 259.863C28.5977 258.665 28.4479 257.48 28.1484 256.309C27.8359 255.137 27.4258 254.108 26.918 253.223C26.8008 253.001 26.7422 252.799 26.7422 252.617C26.7422 252.161 27.0872 251.79 27.7773 251.504C28.0508 251.387 28.2982 251.328 28.5195 251.328C29.0404 251.328 29.444 251.615 29.7305 252.187C30.2383 253.19 30.6484 254.375 30.9609 255.742C31.2734 257.109 31.4297 258.483 31.4297 259.863C31.4297 261.829 31.0521 263.509 30.2969 264.902C29.5417 266.296 28.4544 267.357 27.0352 268.086C25.6159 268.815 23.9297 269.18 21.9766 269.18C20.1146 269.18 18.4674 268.783 17.0352 267.988C15.6029 267.194 14.4961 266.094 13.7148 264.687C12.9206 263.281 12.5234 261.673 12.5234 259.863ZM15.3555 259.863C15.3555 261.465 15.7656 262.793 16.5859 263.848C17.3932 264.889 18.5195 265.573 19.9648 265.898L19.9648 253.965C18.4674 254.238 17.3281 254.87 16.5469 255.859C15.7526 256.836 15.3555 258.171 15.3555 259.863ZM12.9531 226.855C12.9531 226.413 13.0573 226.1 13.2656 225.918C13.4609 225.723 13.7995 225.625 14.2812 225.625C14.763 225.625 15.1081 225.723 15.3164 225.918C15.5117 226.1 15.6094 226.413 15.6094 226.855L15.6094 228.125L21.7227 233.926L28.3437 227.656L28.3437 226.66C28.3437 226.217 28.4479 225.905 28.6562 225.723C28.8516 225.527 29.1901 225.43 29.6719 225.43C30.1536 225.43 30.4987 225.527 30.707 225.723C30.9023 225.905 31 226.217 31 226.66L31 233.379C31 233.822 30.9023 234.141 30.707 234.336C30.4987 234.518 30.1536 234.609 29.6719 234.609C29.1901 234.609 28.8516 234.518 28.6562 234.336C28.4479 234.141 28.3437 233.822 28.3437 233.379L28.3437 231.504L23.3047 236.191L28.3437 240.859L28.3437 239.316C28.3437 238.874 28.4479 238.561 28.6562 238.379C28.8516 238.184 29.1901 238.086 29.6719 238.086C30.1536 238.086 30.4987 238.184 30.707 238.379C30.9023 238.561 31 238.874 31 239.316L31 245.449C31 245.892 30.9023 246.211 30.707 246.406C30.4987 246.589 30.1536 246.68 29.6719 246.68C29.1901 246.68 28.8516 246.589 28.6562 246.406C28.4479 246.211 28.3437 245.892 28.3437 245.449L28.3437 244.473L21.6836 238.125L15.6094 243.867L15.6094 245.254C15.6094 245.697 15.5117 246.016 15.3164 246.211C15.1081 246.393 14.763 246.484 14.2812 246.484C13.7995 246.484 13.4609 246.393 13.2656 246.211C13.0573 246.016 12.9531 245.697 12.9531 245.254L12.9531 238.535C12.9531 238.092 13.0573 237.78 13.2656 237.598C13.4609 237.402 13.7995 237.305 14.2812 237.305C14.763 237.305 15.1081 237.402 15.3164 237.598C15.5117 237.78 15.6094 238.092 15.6094 238.535L15.6094 240.02L20.1016 235.879L15.6094 231.719L15.6094 232.793C15.6094 233.236 15.5117 233.555 15.3164 233.75C15.1081 233.932 14.763 234.023 14.2812 234.023C13.7995 234.023 13.4609 233.932 13.2656 233.75C13.0573 233.555 12.9531 233.236 12.9531 232.793L12.9531 226.855ZM18.8125 212.07C18.8125 213.008 18.7213 213.685 18.5391 214.102C18.3437 214.505 18.0247 214.707 17.582 214.707L13.9883 214.707C13.5456 214.707 13.2331 214.505 13.0508 214.102C12.8555 213.685 12.7578 213.008 12.7578 212.07C12.7578 211.133 12.8555 210.462 13.0508 210.059C13.2331 209.642 13.5456 209.434 13.9883 209.434L17.582 209.434C18.0247 209.434 18.3437 209.642 18.5391 210.059C18.7213 210.462 18.8125 211.133 18.8125 212.07ZM25.2578 209.727C25.2578 209.505 25.3229 209.336 25.4531 209.219C25.5703 209.102 25.7266 209.043 25.9219 209.043C26.1042 209.043 26.293 209.089 26.4883 209.18L35.9414 213.32C36.4753 213.555 36.7422 214.115 36.7422 215C36.7422 215.937 36.4167 216.406 35.7656 216.406C35.7135 216.406 35.6094 216.393 35.4531 216.367L26.0391 214.531C25.7917 214.479 25.6029 214.368 25.4727 214.199C25.3294 214.017 25.2578 213.789 25.2578 213.516L25.2578 209.727Z" fill="black"/>
<path d="M32.1819 298.252C32.1725 298.089 32.1956 297.949 32.2512 297.831C32.3402 297.643 32.4884 297.497 32.6958 297.393C32.9088 297.278 33.1518 297.205 33.4249 297.176C33.8609 297.137 34.226 297.187 34.5203 297.326C34.7558 297.438 34.8903 297.595 34.9239 297.798C35.3034 300.469 36.2624 303.01 37.801 305.423C39.3397 307.835 41.6099 309.751 44.6118 311.169C47.6137 312.588 50.5204 313.127 53.3319 312.785C56.149 312.431 58.7126 311.548 61.0228 310.134C61.2011 310.031 61.4079 310.035 61.6434 310.146C61.9377 310.285 62.2082 310.535 62.455 310.897C62.6057 311.127 62.7041 311.36 62.7501 311.598C62.8017 311.824 62.783 312.031 62.694 312.22C62.6384 312.337 62.5446 312.444 62.4128 312.54C60.8746 313.57 59.0869 314.382 57.0498 314.974C55.03 315.561 52.8334 315.79 50.46 315.662C48.0922 315.522 45.731 314.896 43.3766 313.783C41.0222 312.67 39.0335 311.24 37.4106 309.494C35.7933 307.736 34.5669 305.882 33.7317 303.931C32.8846 301.976 32.368 300.082 32.1819 298.252ZM48.771 282.761C49.5778 281.054 50.6122 279.765 51.8743 278.892C53.1302 278.002 54.5233 277.523 56.0536 277.454C57.5722 277.38 59.1483 277.671 60.7821 278.328C61.1823 278.517 61.4231 278.739 61.5045 278.994C61.5914 279.236 61.5403 279.558 61.3511 279.958L55.3086 292.743C57.1016 293.489 58.6766 293.6 60.0338 293.075C61.3847 292.533 62.4747 291.384 63.3037 289.63C63.8156 288.547 64.1866 287.412 64.4166 286.224C64.6348 285.031 64.7035 283.926 64.6228 282.909C64.6114 282.658 64.6447 282.451 64.7226 282.286C64.9173 281.874 65.3879 281.686 66.1342 281.722C66.4315 281.733 66.6802 281.786 66.8803 281.88C67.3512 282.103 67.5937 282.534 67.6079 283.175C67.6386 284.298 67.5031 285.545 67.2014 286.914C66.8997 288.284 66.454 289.593 65.8642 290.84C65.024 292.618 63.9649 293.975 62.6867 294.912C61.4086 295.849 59.9721 296.344 58.3774 296.397C56.7826 296.449 55.1023 296.059 53.3365 295.224C51.6531 294.428 50.3336 293.365 49.3781 292.035C48.4226 290.705 47.8921 289.237 47.7867 287.632C47.6695 286.021 47.9976 284.398 48.771 282.761ZM51.3315 283.972C50.6471 285.42 50.4504 286.796 50.7413 288.1C51.0261 289.386 51.7523 290.486 52.9199 291.398L58.0193 280.609C56.5487 280.216 55.2487 280.3 54.1195 280.861C52.9841 281.404 52.0548 282.441 51.3315 283.972ZM50.0591 260.428C51.5918 259.41 53.3825 258.607 55.4314 258.02C57.4685 257.427 59.6769 257.204 62.0565 257.349C64.4417 257.483 66.8115 258.106 69.1659 259.219C71.5204 260.332 73.5004 261.764 75.1059 263.517C76.7171 265.258 77.9344 267.101 78.7579 269.045C79.5988 270.984 80.1095 272.874 80.29 274.716C80.2995 274.879 80.2764 275.02 80.2207 275.137C80.1317 275.326 79.9807 275.478 79.7677 275.593C79.5604 275.697 79.3201 275.763 79.047 275.792C78.611 275.831 78.2459 275.781 77.9516 275.642C77.7161 275.531 77.5816 275.373 77.548 275.17C77.1741 272.488 76.2268 269.952 74.7062 267.562C73.1911 265.161 70.9326 263.251 67.9307 261.832C64.9288 260.413 62.0076 259.875 59.167 260.218C56.3263 260.56 53.7537 261.432 51.4491 262.835C51.2708 262.938 51.064 262.934 50.8285 262.822C50.5342 262.683 50.2637 262.433 50.0169 262.071C49.8662 261.842 49.765 261.614 49.7134 261.388C49.6674 261.15 49.6889 260.937 49.7779 260.749C49.8336 260.631 49.9273 260.524 50.0591 260.428Z" fill="black"/>
<path d="M106.399 231.415C108.102 231.035 109.864 230.983 111.686 231.257C112.347 231.35 112.746 231.701 112.882 232.311C112.913 232.451 112.931 232.62 112.935 232.82C112.919 233.584 112.682 234.017 112.224 234.119C112.084 234.15 111.925 234.152 111.745 234.125C109.993 233.862 108.417 233.887 107.019 234.198C104.452 234.77 103.476 236.435 104.09 239.193L104.558 241.29L111.154 239.82C111.586 239.724 111.913 239.757 112.137 239.921C112.37 240.069 112.539 240.378 112.644 240.849C112.748 241.319 112.728 241.677 112.583 241.923C112.447 242.153 112.164 242.316 111.732 242.413L105.136 243.883L107.566 254.787L114.162 253.317C114.594 253.221 114.922 253.254 115.145 253.418C115.378 253.566 115.547 253.875 115.652 254.346C115.757 254.816 115.736 255.174 115.591 255.42C115.456 255.65 115.172 255.813 114.74 255.91L101.51 258.858C101.078 258.955 100.745 258.929 100.512 258.781C100.289 258.617 100.125 258.3 100.02 257.83C99.9149 257.359 99.9302 257.009 100.066 256.779C100.211 256.533 100.5 256.362 100.932 256.266L104.706 255.424L102.276 244.52L98.5015 245.361C98.0693 245.458 97.7367 245.432 97.5036 245.284C97.2804 245.12 97.1163 244.803 97.0115 244.333C96.9067 243.863 96.922 243.512 97.0575 243.282C97.2028 243.036 97.4915 242.865 97.9236 242.769L101.698 241.927L101.176 239.583C100.708 237.486 100.929 235.722 101.837 234.292C102.756 232.847 104.276 231.888 106.399 231.415ZM127.839 234.06C129.58 233.672 131.238 233.716 132.811 234.193C134.385 234.669 135.723 235.525 136.825 236.76C137.938 237.979 138.691 239.472 139.084 241.239C139.478 243.005 139.432 244.683 138.946 246.272C138.469 247.846 137.62 249.183 136.397 250.282C135.175 251.382 133.693 252.126 131.952 252.514C130.211 252.902 128.554 252.857 126.98 252.381C125.406 251.905 124.064 251.057 122.951 249.837C121.849 248.602 121.101 247.101 120.707 245.335C120.313 243.568 120.355 241.898 120.831 240.325C121.317 238.735 122.172 237.391 123.394 236.292C124.616 235.192 126.098 234.448 127.839 234.06ZM128.468 236.882C127.235 237.156 126.21 237.672 125.391 238.428C124.582 239.168 124.033 240.085 123.742 241.176C123.449 242.256 123.442 243.418 123.719 244.663C123.997 245.909 124.499 246.964 125.225 247.83C125.949 248.682 126.836 249.278 127.885 249.618C128.944 249.942 130.091 249.967 131.323 249.692C132.556 249.417 133.577 248.91 134.386 248.169C135.204 247.413 135.76 246.495 136.053 245.416C136.344 244.324 136.35 243.156 136.072 241.91C135.795 240.665 135.294 239.616 134.57 238.763C133.844 237.898 132.951 237.303 131.892 236.979C130.842 236.639 129.701 236.607 128.468 236.882ZM157.083 227.542C158.074 227.321 159.058 227.369 160.036 227.685C160.612 227.876 160.954 228.214 161.062 228.697C161.113 228.925 161.115 229.205 161.069 229.536C160.963 230.319 160.676 230.764 160.205 230.869C160.015 230.911 159.825 230.9 159.638 230.835C158.938 230.631 158.233 230.608 157.521 230.766C156.377 231.021 155.316 231.678 154.338 232.736C153.357 233.782 152.639 235.049 152.184 236.538C151.742 238.024 151.686 239.511 152.017 240.998L152.842 244.696L159.266 243.264C159.698 243.168 160.026 243.202 160.249 243.365C160.482 243.513 160.651 243.823 160.756 244.293C160.861 244.763 160.841 245.121 160.695 245.367C160.56 245.597 160.276 245.761 159.844 245.857L147.567 248.593C147.135 248.689 146.802 248.664 146.569 248.515C146.346 248.352 146.182 248.035 146.077 247.565C145.972 247.094 145.988 246.744 146.123 246.514C146.268 246.268 146.557 246.097 146.989 246.001L149.982 245.333L147.212 232.904L144.791 233.444C144.359 233.54 144.026 233.514 143.793 233.366C143.57 233.202 143.406 232.885 143.301 232.415C143.196 231.945 143.211 231.595 143.347 231.364C143.492 231.118 143.781 230.947 144.213 230.851L148.102 229.984C148.534 229.888 148.862 229.922 149.085 230.085C149.318 230.233 149.487 230.543 149.592 231.013L150.45 234.864C150.811 233.609 151.33 232.466 152.007 231.435C152.684 230.404 153.461 229.55 154.338 228.875C155.215 228.199 156.13 227.755 157.083 227.542Z" fill="black"/>
<path d="M221.5 289.375C221.943 289.375 222.255 289.479 222.438 289.688C222.633 289.883 222.73 290.221 222.73 290.703V312.344H229C229.443 312.344 229.755 312.448 229.938 312.656C230.133 312.852 230.23 313.19 230.23 313.672C230.23 314.154 230.133 314.499 229.938 314.707C229.755 314.902 229.443 315 229 315H213.688C213.245 315 212.926 314.902 212.73 314.707C212.548 314.499 212.457 314.154 212.457 313.672C212.457 313.19 212.548 312.852 212.73 312.656C212.926 312.448 213.245 312.344 213.688 312.344H219.801V292.031H214.469C214.026 292.031 213.707 291.934 213.512 291.738C213.329 291.53 213.238 291.185 213.238 290.703C213.238 290.221 213.329 289.883 213.512 289.688C213.707 289.479 214.026 289.375 214.469 289.375H221.5ZM245.152 296.523C247.04 296.523 248.648 296.908 249.977 297.676C251.318 298.431 252.346 299.486 253.062 300.84C253.779 302.181 254.189 303.73 254.293 305.488C254.293 305.931 254.195 306.243 254 306.426C253.818 306.608 253.505 306.699 253.062 306.699H238.922C239.013 308.639 239.586 310.111 240.641 311.113C241.708 312.103 243.212 312.598 245.152 312.598C246.35 312.598 247.535 312.448 248.707 312.148C249.879 311.836 250.908 311.426 251.793 310.918C252.014 310.801 252.216 310.742 252.398 310.742C252.854 310.742 253.225 311.087 253.512 311.777C253.629 312.051 253.688 312.298 253.688 312.52C253.688 313.04 253.401 313.444 252.828 313.73C251.826 314.238 250.641 314.648 249.273 314.961C247.906 315.273 246.533 315.43 245.152 315.43C243.186 315.43 241.507 315.052 240.113 314.297C238.72 313.542 237.659 312.454 236.93 311.035C236.201 309.616 235.836 307.93 235.836 305.977C235.836 304.115 236.233 302.467 237.027 301.035C237.822 299.603 238.922 298.496 240.328 297.715C241.734 296.921 243.342 296.523 245.152 296.523ZM245.152 299.355C243.551 299.355 242.223 299.766 241.168 300.586C240.126 301.393 239.443 302.52 239.117 303.965H251.051C250.777 302.467 250.146 301.328 249.156 300.547C248.18 299.753 246.845 299.355 245.152 299.355ZM265.914 291.387C266.448 291.387 266.826 291.484 267.047 291.68C267.268 291.875 267.379 292.201 267.379 292.656V298.516H275.406C275.849 298.516 276.161 298.62 276.344 298.828C276.539 299.023 276.637 299.362 276.637 299.844C276.637 300.326 276.539 300.671 276.344 300.879C276.161 301.074 275.849 301.172 275.406 301.172H267.379V308.281C267.379 309.766 267.633 310.853 268.141 311.543C268.661 312.233 269.56 312.578 270.836 312.578C271.708 312.578 272.626 312.402 273.59 312.051C274.553 311.699 275.484 311.23 276.383 310.645C276.565 310.514 276.767 310.449 276.988 310.449C277.431 310.449 277.809 310.749 278.121 311.348C278.29 311.686 278.375 311.979 278.375 312.227C278.375 312.643 278.16 312.982 277.73 313.242C276.715 313.88 275.582 314.408 274.332 314.824C273.082 315.228 271.917 315.43 270.836 315.43C268.622 315.43 267.001 314.857 265.973 313.711C264.957 312.552 264.449 310.827 264.449 308.535V301.172H260.484C260.042 301.172 259.723 301.074 259.527 300.879C259.345 300.671 259.254 300.326 259.254 299.844C259.254 299.362 259.345 299.023 259.527 298.828C259.723 298.62 260.042 298.516 260.484 298.516H264.449V292.656C264.449 292.201 264.56 291.875 264.781 291.68C265.003 291.484 265.38 291.387 265.914 291.387Z" fill="black"/>
<path d="M125.508 258.36C125.871 258.107 126.187 258.014 126.455 258.081C126.727 258.13 127.001 258.352 127.276 258.747L139.64 276.508L140.955 275.593C141.318 275.34 141.634 275.247 141.902 275.314C142.174 275.363 142.448 275.585 142.723 275.98C142.998 276.376 143.115 276.715 143.074 276.997C143.036 277.262 142.835 277.52 142.472 277.773L139.923 279.548C139.56 279.801 139.242 279.903 138.971 279.854C138.702 279.787 138.43 279.556 138.155 279.161L137.262 277.878C137.199 279.223 136.887 280.439 136.328 281.527C135.768 282.615 134.965 283.523 133.917 284.252C132.592 285.175 131.19 285.69 129.711 285.8C128.225 285.898 126.778 285.573 125.368 284.825C123.951 284.066 122.693 282.896 121.592 281.314C120.491 279.733 119.834 278.151 119.621 276.57C119.402 274.978 119.6 273.507 120.215 272.158C120.824 270.799 121.79 269.658 123.116 268.735C125.125 267.337 127.432 267.039 130.038 267.843L125.631 261.511L123.034 263.319C122.67 263.572 122.353 263.674 122.081 263.625C121.812 263.558 121.54 263.327 121.265 262.932C120.99 262.536 120.871 262.207 120.909 261.942C120.95 261.66 121.153 261.392 121.516 261.139L125.508 258.36ZM124.927 270.996C123.976 271.658 123.319 272.457 122.955 273.393C122.583 274.318 122.498 275.313 122.7 276.378C122.913 277.435 123.388 278.493 124.124 279.551C124.861 280.609 125.688 281.422 126.606 281.988C127.535 282.547 128.501 282.819 129.505 282.802C130.501 282.775 131.475 282.43 132.426 281.768C133.377 281.106 134.073 280.305 134.512 279.364C134.963 278.416 135.114 277.39 134.965 276.288C134.827 275.178 134.372 274.068 133.598 272.956C132.824 271.845 131.941 271.032 130.948 270.517C129.966 269.995 128.952 269.781 127.906 269.874C126.872 269.96 125.878 270.334 124.927 270.996ZM143.682 254.419C145.146 253.4 146.696 252.812 148.333 252.656C149.97 252.501 151.532 252.785 153.021 253.51C154.512 254.217 155.775 255.313 156.809 256.799C157.843 258.284 158.436 259.854 158.589 261.509C158.744 263.146 158.465 264.705 157.751 266.185C157.037 267.666 155.947 268.916 154.483 269.935C153.019 270.955 151.469 271.542 149.832 271.698C148.195 271.854 146.631 271.578 145.14 270.871C143.651 270.146 142.39 269.041 141.356 267.556C140.322 266.07 139.727 264.509 139.572 262.872C139.419 261.217 139.7 259.65 140.414 258.169C141.129 256.688 142.218 255.438 143.682 254.419ZM145.333 256.791C144.297 257.513 143.543 258.379 143.072 259.389C142.604 260.38 142.443 261.437 142.589 262.557C142.726 263.667 143.16 264.745 143.889 265.793C144.618 266.84 145.483 267.626 146.483 268.151C147.476 268.666 148.522 268.882 149.622 268.798C150.725 268.696 151.795 268.285 152.832 267.563C153.869 266.841 154.621 265.985 155.088 264.993C155.559 263.983 155.726 262.923 155.588 261.813C155.442 260.693 155.005 259.609 154.276 258.562C153.547 257.514 152.686 256.733 151.693 256.219C150.693 255.694 149.641 255.482 148.538 255.583C147.438 255.667 146.37 256.069 145.333 256.791ZM169.137 236.699C169.575 236.394 169.941 236.258 170.234 236.292C170.527 236.326 170.804 236.53 171.065 236.904L174.301 241.552C174.561 241.926 174.656 242.257 174.586 242.543C174.516 242.83 174.262 243.126 173.824 243.431C173.385 243.736 173.02 243.872 172.727 243.838C172.433 243.804 172.156 243.6 171.896 243.226C171.442 242.574 170.87 242.116 170.178 241.852C169.486 241.588 168.702 241.555 167.825 241.753C166.958 241.944 166.049 242.37 165.098 243.032C164.072 243.747 163.313 244.616 162.821 245.641C162.328 246.666 162.139 247.75 162.252 248.892C162.365 250.035 162.779 251.119 163.493 252.145C164.215 253.182 165.076 253.963 166.076 254.488C167.08 254.995 168.131 255.207 169.231 255.124C170.342 255.033 171.41 254.63 172.436 253.916C173.419 253.232 174.266 252.42 174.977 251.481C175.691 250.524 176.227 249.493 176.584 248.387C176.689 248.06 176.838 247.83 177.03 247.696C177.34 247.48 177.781 247.498 178.353 247.75C178.7 247.906 178.958 248.107 179.129 248.352C179.39 248.726 179.435 249.155 179.264 249.639C178.855 250.875 178.195 252.081 177.283 253.255C176.371 254.429 175.306 255.44 174.088 256.288C172.56 257.352 170.973 257.957 169.329 258.102C167.696 258.239 166.149 257.943 164.69 257.214C163.23 256.485 161.987 255.383 160.961 253.908C159.934 252.434 159.337 250.882 159.171 249.252C159.005 247.623 159.269 246.066 159.966 244.582C160.672 243.091 161.779 241.82 163.286 240.772C164.237 240.109 165.231 239.68 166.267 239.482C167.307 239.266 168.328 239.285 169.33 239.539L168.66 238.577C168.4 238.203 168.305 237.873 168.375 237.586C168.445 237.3 168.699 237.004 169.137 236.699ZM188.458 223.772C188.821 223.519 189.137 223.426 189.406 223.493C189.678 223.542 189.951 223.764 190.227 224.159L198.261 235.701L199.575 234.786C199.939 234.533 200.255 234.44 200.523 234.507C200.795 234.555 201.069 234.777 201.344 235.173C201.619 235.568 201.736 235.907 201.695 236.19C201.657 236.454 201.456 236.713 201.093 236.966L198.544 238.74C198.181 238.993 197.863 239.095 197.591 239.046C197.33 238.99 197.062 238.764 196.787 238.369L195.436 236.429C195.49 238.01 195.242 239.421 194.693 240.66C194.154 241.891 193.339 242.887 192.249 243.645C191.277 244.322 190.288 244.702 189.282 244.783C188.268 244.854 187.294 244.628 186.358 244.105C185.423 243.582 184.587 242.792 183.851 241.734L178.45 233.976L177.136 234.891C176.772 235.144 176.455 235.246 176.183 235.197C175.914 235.13 175.642 234.899 175.367 234.504C175.092 234.108 174.973 233.778 175.011 233.514C175.052 233.231 175.255 232.963 175.618 232.711L178.327 230.825C178.69 230.572 179.006 230.479 179.275 230.546C179.547 230.594 179.82 230.816 180.096 231.212L186.088 239.82C186.75 240.771 187.494 241.372 188.319 241.622C189.144 241.873 189.983 241.701 190.838 241.106C191.747 240.473 192.409 239.624 192.824 238.557C193.251 237.483 193.379 236.323 193.209 235.076C193.04 233.83 192.561 232.641 191.772 231.508L188.581 226.923L186.305 228.508C185.941 228.761 185.624 228.863 185.352 228.814C185.083 228.747 184.811 228.516 184.536 228.121C184.261 227.725 184.142 227.395 184.18 227.131C184.221 226.848 184.424 226.581 184.787 226.328L188.458 223.772ZM221.023 219.855C221.386 219.602 221.702 219.509 221.971 219.576C222.243 219.625 222.516 219.847 222.792 220.242C223.067 220.638 223.184 220.977 223.143 221.259C223.105 221.524 222.904 221.783 222.541 222.035L220.152 223.698C219.789 223.951 219.471 224.053 219.199 224.004C218.931 223.938 218.659 223.706 218.384 223.311L211.778 213.821C211.264 213.084 210.758 212.619 210.259 212.427C209.764 212.217 209.249 212.297 208.715 212.669C208.213 213.019 207.911 213.578 207.811 214.346C207.704 215.103 207.812 215.987 208.136 216.999C208.463 217.993 208.994 219.019 209.731 220.077L213.313 225.223L214.226 224.587C214.59 224.334 214.906 224.241 215.174 224.308C215.446 224.356 215.72 224.578 215.995 224.974C216.27 225.369 216.387 225.708 216.346 225.991C216.308 226.255 216.107 226.514 215.744 226.767L213.436 228.374C213.072 228.627 212.755 228.729 212.483 228.68C212.214 228.613 211.942 228.382 211.667 227.987L205.061 218.497C204.548 217.76 204.042 217.295 203.543 217.103C203.048 216.892 202.533 216.973 201.998 217.345C201.496 217.695 201.195 218.253 201.095 219.021C200.987 219.778 201.095 220.663 201.419 221.675C201.746 222.669 202.278 223.695 203.014 224.753L206.596 229.898L207.43 229.318C207.793 229.065 208.109 228.972 208.378 229.039C208.65 229.088 208.923 229.31 209.198 229.705C209.474 230.1 209.591 230.439 209.549 230.722C209.511 230.986 209.311 231.245 208.947 231.498L204.395 234.667C204.032 234.92 203.714 235.022 203.442 234.973C203.173 234.907 202.902 234.676 202.626 234.28C202.351 233.885 202.232 233.555 202.27 233.29C202.312 233.008 202.514 232.74 202.877 232.487L204.192 231.572L196.916 221.121L195.602 222.036C195.239 222.289 194.921 222.391 194.649 222.342C194.38 222.275 194.108 222.044 193.833 221.649C193.558 221.253 193.439 220.923 193.477 220.659C193.519 220.376 193.721 220.109 194.084 219.856L196.473 218.193C196.836 217.94 197.152 217.847 197.421 217.914C197.693 217.963 197.966 218.185 198.241 218.58L199.346 220.167C199.106 218.843 199.132 217.706 199.424 216.757C199.708 215.798 200.224 215.058 200.972 214.537C201.699 214.032 202.506 213.835 203.393 213.947C204.28 214.059 205.151 214.524 206.005 215.341C205.61 212.745 206.166 210.922 207.672 209.873C208.303 209.434 208.976 209.204 209.69 209.182C210.408 209.143 211.138 209.348 211.881 209.799C212.626 210.232 213.326 210.919 213.981 211.859L220.029 220.547L221.023 219.855ZM222.564 199.507C224.114 198.428 225.653 197.824 227.182 197.696C228.714 197.55 230.161 197.828 231.522 198.53C232.876 199.221 234.098 200.259 235.188 201.642C235.441 202.005 235.539 202.318 235.483 202.579C235.438 202.832 235.233 203.086 234.87 203.339L223.264 211.418C224.448 212.958 225.758 213.838 227.197 214.058C228.638 214.261 230.155 213.807 231.748 212.699C232.731 212.015 233.618 211.215 234.408 210.299C235.192 209.373 235.802 208.449 236.238 207.526C236.353 207.304 236.485 207.14 236.635 207.036C237.009 206.776 237.51 206.847 238.14 207.25C238.392 207.407 238.582 207.577 238.708 207.759C239.006 208.186 239.001 208.681 238.695 209.243C238.162 210.233 237.424 211.247 236.48 212.284C235.537 213.322 234.498 214.235 233.366 215.023C231.752 216.147 230.158 216.796 228.583 216.973C227.008 217.149 225.516 216.863 224.106 216.114C222.697 215.366 221.435 214.191 220.319 212.588C219.255 211.059 218.64 209.481 218.473 207.851C218.307 206.222 218.578 204.685 219.285 203.241C219.986 201.785 221.079 200.541 222.564 199.507ZM224.182 201.831C222.868 202.746 222.012 203.841 221.615 205.117C221.221 206.375 221.304 207.69 221.862 209.062L231.657 202.244C230.577 201.171 229.407 200.597 228.149 200.521C226.894 200.427 225.571 200.864 224.182 201.831ZM243.916 184.643C244.888 183.966 245.881 183.592 246.895 183.521C247.901 183.44 248.871 183.66 249.807 184.183C250.742 184.706 251.578 185.497 252.314 186.555L257.715 194.313L259.03 193.398C259.393 193.145 259.709 193.052 259.977 193.119C260.249 193.168 260.523 193.39 260.798 193.785C261.073 194.18 261.19 194.519 261.149 194.802C261.111 195.066 260.91 195.325 260.547 195.578L255.353 199.194C254.99 199.446 254.673 199.549 254.401 199.5C254.132 199.433 253.86 199.202 253.585 198.806C253.31 198.411 253.191 198.081 253.229 197.817C253.27 197.534 253.473 197.266 253.836 197.013L255.311 195.987L250.077 188.469C249.415 187.518 248.672 186.917 247.847 186.666C247.022 186.416 246.182 186.588 245.327 187.183C244.418 187.815 243.751 188.668 243.325 189.743C242.909 190.809 242.786 191.966 242.956 193.212C243.125 194.459 243.604 195.648 244.393 196.781L247.584 201.365L249.059 200.339C249.422 200.086 249.738 199.993 250.007 200.06C250.279 200.108 250.552 200.33 250.828 200.726C251.103 201.121 251.22 201.46 251.179 201.743C251.141 202.007 250.94 202.266 250.577 202.519L245.383 206.134C245.02 206.387 244.702 206.489 244.43 206.441C244.161 206.374 243.89 206.143 243.614 205.747C243.339 205.352 243.22 205.022 243.258 204.757C243.3 204.475 243.502 204.207 243.865 203.954L245.18 203.039L237.904 192.588L236.269 193.726C235.906 193.979 235.588 194.081 235.316 194.032C235.048 193.965 234.776 193.734 234.501 193.339C234.225 192.944 234.107 192.614 234.145 192.349C234.186 192.067 234.388 191.799 234.752 191.546L237.621 189.549C237.984 189.296 238.3 189.203 238.569 189.269C238.841 189.318 239.114 189.54 239.39 189.936L240.729 191.859C240.675 190.278 240.918 188.872 241.457 187.64C242.006 186.401 242.826 185.402 243.916 184.643ZM256.353 169.726C256.792 169.421 257.157 169.285 257.451 169.319C257.744 169.353 258.021 169.557 258.281 169.931L261.629 174.74L268.217 170.154C268.58 169.901 268.896 169.808 269.165 169.875C269.437 169.923 269.71 170.145 269.985 170.541C270.261 170.936 270.378 171.275 270.336 171.558C270.298 171.822 270.098 172.081 269.734 172.334L263.146 176.92L267.208 182.755C268.056 183.973 268.886 184.72 269.697 184.997C270.518 185.265 271.453 185.035 272.5 184.306C273.216 183.808 273.869 183.139 274.459 182.3C275.049 181.461 275.545 180.544 275.948 179.55C276.023 179.339 276.152 179.171 276.333 179.044C276.697 178.791 277.178 178.821 277.776 179.134C278.109 179.315 278.345 179.507 278.487 179.711C278.725 180.052 278.742 180.453 278.538 180.912C278.069 182.016 277.441 183.096 276.653 184.152C275.857 185.198 275.016 186.029 274.129 186.647C272.313 187.911 270.655 188.367 269.156 188.015C267.66 187.644 266.258 186.518 264.949 184.637L260.742 178.594L257.488 180.859C257.124 181.112 256.807 181.214 256.535 181.165C256.266 181.099 255.994 180.867 255.719 180.472C255.444 180.077 255.325 179.747 255.363 179.482C255.404 179.2 255.607 178.932 255.97 178.679L259.224 176.414L255.877 171.605C255.616 171.231 255.521 170.9 255.591 170.614C255.661 170.327 255.915 170.031 256.353 169.726Z" fill="black"/>
<path d="M557.535 165.824C557.796 165.694 558.036 165.629 558.258 165.629C558.688 165.629 559.046 165.909 559.332 166.469C559.488 166.781 559.566 167.055 559.566 167.289C559.566 167.719 559.299 168.064 558.766 168.324L545.641 174.613L558.766 180.902C559.299 181.163 559.566 181.508 559.566 181.938C559.566 182.172 559.488 182.445 559.332 182.758C559.046 183.318 558.688 183.598 558.258 183.598C558.036 183.598 557.796 183.533 557.535 183.402L542.359 175.961C542.034 175.805 541.799 175.622 541.656 175.414C541.513 175.206 541.441 174.939 541.441 174.613C541.441 174.288 541.513 174.021 541.656 173.812C541.799 173.604 542.034 173.422 542.359 173.266L557.535 165.824ZM581.793 160.375C582.236 160.375 582.548 160.479 582.73 160.688C582.926 160.883 583.023 161.221 583.023 161.703V183.344H584.625C585.068 183.344 585.38 183.448 585.562 183.656C585.758 183.852 585.855 184.19 585.855 184.672C585.855 185.154 585.758 185.499 585.562 185.707C585.38 185.902 585.068 186 584.625 186H581.52C581.077 186 580.758 185.902 580.562 185.707C580.38 185.499 580.289 185.154 580.289 184.672V183.109C579.469 184.177 578.518 184.997 577.438 185.57C576.357 186.143 575.178 186.43 573.902 186.43C572.288 186.43 570.842 186.052 569.566 185.297C568.29 184.529 567.288 183.435 566.559 182.016C565.829 180.583 565.465 178.904 565.465 176.977C565.465 175.049 565.829 173.376 566.559 171.957C567.288 170.525 568.29 169.431 569.566 168.676C570.842 167.908 572.288 167.523 573.902 167.523C576.35 167.523 578.414 168.598 580.094 170.746V163.031H576.93C576.487 163.031 576.168 162.934 575.973 162.738C575.79 162.53 575.699 162.185 575.699 161.703C575.699 161.221 575.79 160.883 575.973 160.688C576.168 160.479 576.487 160.375 576.93 160.375H581.793ZM574.098 170.414C572.939 170.414 571.943 170.694 571.109 171.254C570.276 171.801 569.638 172.569 569.195 173.559C568.766 174.548 568.551 175.688 568.551 176.977C568.551 178.266 568.766 179.405 569.195 180.395C569.638 181.384 570.276 182.159 571.109 182.719C571.943 183.266 572.939 183.539 574.098 183.539C575.257 183.539 576.285 183.279 577.184 182.758C578.095 182.237 578.805 181.482 579.312 180.492C579.833 179.503 580.094 178.331 580.094 176.977C580.094 175.622 579.833 174.451 579.312 173.461C578.805 172.471 578.095 171.716 577.184 171.195C576.285 170.674 575.257 170.414 574.098 170.414ZM599.664 167.953C600.107 167.953 600.419 168.057 600.602 168.266C600.797 168.461 600.895 168.799 600.895 169.281V183.344H607.164C607.607 183.344 607.919 183.448 608.102 183.656C608.297 183.852 608.395 184.19 608.395 184.672C608.395 185.154 608.297 185.499 608.102 185.707C607.919 185.902 607.607 186 607.164 186H591.852C591.409 186 591.09 185.902 590.895 185.707C590.712 185.499 590.621 185.154 590.621 184.672C590.621 184.19 590.712 183.852 590.895 183.656C591.09 183.448 591.409 183.344 591.852 183.344H597.965V170.609H593.023C592.581 170.609 592.262 170.512 592.066 170.316C591.884 170.108 591.793 169.763 591.793 169.281C591.793 168.799 591.884 168.461 592.066 168.266C592.262 168.057 592.581 167.953 593.023 167.953H599.664ZM599.039 159.379C599.755 159.379 600.243 159.477 600.504 159.672C600.764 159.854 600.895 160.18 600.895 160.648V163.188C600.895 163.656 600.764 163.988 600.504 164.184C600.243 164.366 599.755 164.457 599.039 164.457C598.323 164.457 597.835 164.366 597.574 164.184C597.314 163.988 597.184 163.656 597.184 163.188V160.648C597.184 160.18 597.314 159.854 597.574 159.672C597.835 159.477 598.323 159.379 599.039 159.379ZM632.73 167.953C633.173 167.953 633.486 168.057 633.668 168.266C633.863 168.461 633.961 168.799 633.961 169.281C633.961 169.763 633.863 170.108 633.668 170.316C633.486 170.512 633.173 170.609 632.73 170.609H631.5L625.191 185.16C625.009 185.603 624.736 185.922 624.371 186.117C624.02 186.326 623.525 186.43 622.887 186.43C622.262 186.43 621.773 186.326 621.422 186.117C621.083 185.922 620.816 185.603 620.621 185.16L614.371 170.609H613.16C612.717 170.609 612.398 170.512 612.203 170.316C612.021 170.108 611.93 169.763 611.93 169.281C611.93 168.799 612.021 168.461 612.203 168.266C612.398 168.057 612.717 167.953 613.16 167.953H620.074C620.517 167.953 620.829 168.057 621.012 168.266C621.207 168.461 621.305 168.799 621.305 169.281C621.305 169.763 621.207 170.108 621.012 170.316C620.829 170.512 620.517 170.609 620.074 170.609H617.574L622.906 183.344L628.297 170.609H626.598C626.155 170.609 625.836 170.512 625.641 170.316C625.458 170.108 625.367 169.763 625.367 169.281C625.367 168.799 625.458 168.461 625.641 168.266C625.836 168.057 626.155 167.953 626.598 167.953H632.73ZM655.562 173.266C655.888 173.422 656.122 173.604 656.266 173.812C656.409 174.021 656.48 174.288 656.48 174.613C656.48 174.939 656.409 175.206 656.266 175.414C656.122 175.622 655.888 175.805 655.562 175.961L640.387 183.402C640.126 183.533 639.885 183.598 639.664 183.598C639.234 183.598 638.876 183.318 638.59 182.758C638.434 182.445 638.355 182.172 638.355 181.938C638.355 181.508 638.622 181.163 639.156 180.902L652.281 174.613L639.156 168.324C638.622 168.064 638.355 167.719 638.355 167.289C638.355 167.055 638.434 166.781 638.59 166.469C638.876 165.909 639.234 165.629 639.664 165.629C639.885 165.629 640.126 165.694 640.387 165.824L655.562 173.266Z" fill="black"/>
<path d="M239.12 48.2C237.6 48.2 236.227 48.4667 235 49C233.773 49.5067 232.733 50.2667 231.88 51.28C231.027 52.2667 230.373 53.48 229.92 54.92C229.467 56.3333 229.24 57.9333 229.24 59.72C229.24 62.0667 229.6 64.1067 230.32 65.84C231.067 67.5733 232.16 68.9067 233.6 69.84C235.067 70.7733 236.893 71.24 239.08 71.24C240.333 71.24 241.52 71.1333 242.64 70.92C243.76 70.7067 244.853 70.44 245.92 70.12V73.24C244.853 73.64 243.747 73.9333 242.6 74.12C241.48 74.3067 240.133 74.4 238.56 74.4C235.653 74.4 233.227 73.8 231.28 72.6C229.333 71.4 227.867 69.6933 226.88 67.48C225.92 65.2667 225.44 62.6667 225.44 59.68C225.44 57.52 225.733 55.5467 226.32 53.76C226.933 51.9733 227.813 50.4267 228.96 49.12C230.133 47.8133 231.573 46.8133 233.28 46.12C234.987 45.4 236.947 45.04 239.16 45.04C240.627 45.04 242.04 45.1867 243.4 45.48C244.76 45.7733 245.973 46.1867 247.04 46.72L245.6 49.76C244.72 49.36 243.733 49 242.64 48.68C241.573 48.36 240.4 48.2 239.12 48.2ZM264.353 52.56H268.193L259.033 62.88L268.953 74H264.873L255.193 63.12V74H251.673V52.56H255.193V62.96L264.353 52.56ZM290.704 63.24C290.704 65.0267 290.464 66.6133 289.984 68C289.531 69.36 288.864 70.52 287.984 71.48C287.131 72.44 286.077 73.1733 284.824 73.68C283.597 74.16 282.224 74.4 280.704 74.4C279.291 74.4 277.984 74.16 276.784 73.68C275.584 73.1733 274.544 72.44 273.664 71.48C272.784 70.52 272.091 69.36 271.584 68C271.104 66.6133 270.864 65.0267 270.864 63.24C270.864 60.8667 271.264 58.8667 272.064 57.24C272.864 55.5867 274.011 54.3333 275.504 53.48C276.997 52.6 278.771 52.16 280.824 52.16C282.771 52.16 284.477 52.6 285.944 53.48C287.437 54.3333 288.597 55.5867 289.424 57.24C290.277 58.8667 290.704 60.8667 290.704 63.24ZM274.504 63.24C274.504 64.92 274.717 66.3867 275.144 67.64C275.597 68.8667 276.291 69.8133 277.224 70.48C278.157 71.1467 279.344 71.48 280.784 71.48C282.224 71.48 283.411 71.1467 284.344 70.48C285.277 69.8133 285.957 68.8667 286.384 67.64C286.837 66.3867 287.064 64.92 287.064 63.24C287.064 61.5333 286.837 60.08 286.384 58.88C285.931 57.68 285.237 56.76 284.304 56.12C283.397 55.4533 282.211 55.12 280.744 55.12C278.557 55.12 276.971 55.84 275.984 57.28C274.997 58.72 274.504 60.7067 274.504 63.24ZM306.483 52.16C309.123 52.16 311.243 53.08 312.843 54.92C314.469 56.76 315.283 59.5333 315.283 63.24C315.283 65.6667 314.909 67.72 314.163 69.4C313.443 71.0533 312.416 72.3067 311.083 73.16C309.776 73.9867 308.229 74.4 306.443 74.4C305.349 74.4 304.376 74.2533 303.523 73.96C302.669 73.6667 301.936 73.2933 301.323 72.84C300.736 72.36 300.229 71.84 299.803 71.28H299.563C299.616 71.7333 299.669 72.3067 299.723 73C299.776 73.6933 299.803 74.2933 299.803 74.8V83.6H296.283V52.56H299.163L299.643 55.48H299.803C300.229 54.8667 300.736 54.3067 301.323 53.8C301.936 53.2933 302.656 52.8933 303.483 52.6C304.336 52.3067 305.336 52.16 306.483 52.16ZM305.843 55.12C304.403 55.12 303.243 55.4 302.363 55.96C301.483 56.4933 300.843 57.3067 300.443 58.4C300.043 59.4933 299.829 60.88 299.803 62.56V63.24C299.803 65 299.989 66.4933 300.363 67.72C300.736 68.9467 301.363 69.88 302.243 70.52C303.149 71.16 304.376 71.48 305.923 71.48C307.229 71.48 308.296 71.12 309.123 70.4C309.976 69.68 310.603 68.7067 311.003 67.48C311.429 66.2267 311.643 64.8 311.643 63.2C311.643 60.7467 311.163 58.7867 310.203 57.32C309.269 55.8533 307.816 55.12 305.843 55.12ZM339.532 63.24C339.532 65.0267 339.292 66.6133 338.812 68C338.359 69.36 337.692 70.52 336.812 71.48C335.959 72.44 334.906 73.1733 333.652 73.68C332.426 74.16 331.052 74.4 329.532 74.4C328.119 74.4 326.812 74.16 325.612 73.68C324.412 73.1733 323.372 72.44 322.492 71.48C321.612 70.52 320.919 69.36 320.412 68C319.932 66.6133 319.692 65.0267 319.692 63.24C319.692 60.8667 320.092 58.8667 320.892 57.24C321.692 55.5867 322.839 54.3333 324.332 53.48C325.826 52.6 327.599 52.16 329.652 52.16C331.599 52.16 333.306 52.6 334.772 53.48C336.266 54.3333 337.426 55.5867 338.252 57.24C339.106 58.8667 339.532 60.8667 339.532 63.24ZM323.332 63.24C323.332 64.92 323.546 66.3867 323.972 67.64C324.426 68.8667 325.119 69.8133 326.052 70.48C326.986 71.1467 328.172 71.48 329.612 71.48C331.052 71.48 332.239 71.1467 333.172 70.48C334.106 69.8133 334.786 68.8667 335.212 67.64C335.666 66.3867 335.892 64.92 335.892 63.24C335.892 61.5333 335.666 60.08 335.212 58.88C334.759 57.68 334.066 56.76 333.132 56.12C332.226 55.4533 331.039 55.12 329.572 55.12C327.386 55.12 325.799 55.84 324.812 57.28C323.826 58.72 323.332 60.7067 323.332 63.24ZM387.735 63.24C387.735 65.0267 387.495 66.6133 387.015 68C386.562 69.36 385.895 70.52 385.015 71.48C384.162 72.44 383.109 73.1733 381.855 73.68C380.629 74.16 379.255 74.4 377.735 74.4C376.322 74.4 375.015 74.16 373.815 73.68C372.615 73.1733 371.575 72.44 370.695 71.48C369.815 70.52 369.122 69.36 368.615 68C368.135 66.6133 367.895 65.0267 367.895 63.24C367.895 60.8667 368.295 58.8667 369.095 57.24C369.895 55.5867 371.042 54.3333 372.535 53.48C374.029 52.6 375.802 52.16 377.855 52.16C379.802 52.16 381.509 52.6 382.975 53.48C384.469 54.3333 385.629 55.5867 386.455 57.24C387.309 58.8667 387.735 60.8667 387.735 63.24ZM371.535 63.24C371.535 64.92 371.749 66.3867 372.175 67.64C372.629 68.8667 373.322 69.8133 374.255 70.48C375.189 71.1467 376.375 71.48 377.815 71.48C379.255 71.48 380.442 71.1467 381.375 70.48C382.309 69.8133 382.989 68.8667 383.415 67.64C383.869 66.3867 384.095 64.92 384.095 63.24C384.095 61.5333 383.869 60.08 383.415 58.88C382.962 57.68 382.269 56.76 381.335 56.12C380.429 55.4533 379.242 55.12 377.775 55.12C375.589 55.12 374.002 55.84 373.015 57.28C372.029 58.72 371.535 60.7067 371.535 63.24ZM407.723 55.52H400.723V74H397.243V55.52H390.323V52.56H407.723V55.52ZM424.627 52.56H428.467L419.307 62.88L429.227 74H425.147L415.467 63.12V74H411.947V52.56H415.467V62.96L424.627 52.56ZM443.319 52.16C445.959 52.16 448.079 53.08 449.679 54.92C451.305 56.76 452.119 59.5333 452.119 63.24C452.119 65.6667 451.745 67.72 450.999 69.4C450.279 71.0533 449.252 72.3067 447.919 73.16C446.612 73.9867 445.065 74.4 443.279 74.4C442.185 74.4 441.212 74.2533 440.359 73.96C439.505 73.6667 438.772 73.2933 438.159 72.84C437.572 72.36 437.065 71.84 436.639 71.28H436.399C436.452 71.7333 436.505 72.3067 436.559 73C436.612 73.6933 436.639 74.2933 436.639 74.8V83.6H433.119V52.56H435.999L436.479 55.48H436.639C437.065 54.8667 437.572 54.3067 438.159 53.8C438.772 53.2933 439.492 52.8933 440.319 52.6C441.172 52.3067 442.172 52.16 443.319 52.16ZM442.679 55.12C441.239 55.12 440.079 55.4 439.199 55.96C438.319 56.4933 437.679 57.3067 437.279 58.4C436.879 59.4933 436.665 60.88 436.639 62.56V63.24C436.639 65 436.825 66.4933 437.199 67.72C437.572 68.9467 438.199 69.88 439.079 70.52C439.985 71.16 441.212 71.48 442.759 71.48C444.065 71.48 445.132 71.12 445.959 70.4C446.812 69.68 447.439 68.7067 447.839 67.48C448.265 66.2267 448.479 64.8 448.479 63.2C448.479 60.7467 447.999 58.7867 447.039 57.32C446.105 55.8533 444.652 55.12 442.679 55.12ZM457.728 74V52.56H461.248V61.36H466.808C468.675 61.36 470.208 61.5867 471.408 62.04C472.608 62.4933 473.501 63.1733 474.088 64.08C474.675 64.96 474.968 66.08 474.968 67.44C474.968 68.7733 474.675 69.9333 474.088 70.92C473.528 71.9067 472.635 72.6667 471.408 73.2C470.208 73.7333 468.621 74 466.648 74H457.728ZM466.328 71.16C467.848 71.16 469.088 70.9067 470.048 70.4C471.008 69.8667 471.488 68.9467 471.488 67.64C471.488 66.3333 471.048 65.4533 470.168 65C469.288 64.52 468.021 64.28 466.368 64.28H461.248V71.16H466.328ZM478.528 74V52.56H482.048V74H478.528ZM503.661 55.52H496.661V74H493.181V55.52H486.261V52.56H503.661V55.52ZM511.204 65.64C511.204 65.88 511.191 66.2267 511.164 66.68C511.164 67.1067 511.151 67.5733 511.124 68.08C511.098 68.56 511.071 69.0267 511.044 69.48C511.018 69.9067 510.991 70.2533 510.964 70.52L522.444 52.56H526.764V74H523.484V61.36C523.484 60.9333 523.484 60.3733 523.484 59.68C523.511 58.9867 523.538 58.3067 523.564 57.64C523.591 56.9467 523.618 56.4267 523.644 56.08L512.244 74H507.884V52.56H511.204V65.64ZM541.868 52.16C543.708 52.16 545.281 52.56 546.588 53.36C547.921 54.16 548.934 55.2933 549.628 56.76C550.348 58.2 550.708 59.8933 550.708 61.84V63.96L536.028 63.96C536.081 66.3867 536.694 68.24 537.868 69.52C539.068 70.7733 540.734 71.4 542.868 71.4C544.228 71.4 545.428 71.28 546.468 71.04C547.534 70.7733 548.628 70.4 549.748 69.92V73C548.654 73.48 547.574 73.8267 546.508 74.04C545.441 74.28 544.174 74.4 542.708 74.4C540.681 74.4 538.881 73.9867 537.308 73.16C535.761 72.3333 534.548 71.1067 533.668 69.48C532.814 67.8267 532.388 65.8133 532.388 63.44C532.388 61.0933 532.774 59.08 533.548 57.4C534.348 55.72 535.454 54.4267 536.868 53.52C538.308 52.6133 539.974 52.16 541.868 52.16ZM541.828 55.04C540.148 55.04 538.814 55.5867 537.828 56.68C536.868 57.7467 536.294 59.24 536.108 61.16L547.028 61.16C547.028 59.9333 546.841 58.8667 546.468 57.96C546.094 57.0533 545.521 56.3467 544.748 55.84C544.001 55.3067 543.028 55.04 541.828 55.04ZM566.027 49.2148C566.327 49.2148 566.542 49.293 566.672 49.4492C566.802 49.6055 566.854 49.8529 566.828 50.1914L565.871 64C565.845 64.2995 565.734 64.5339 565.539 64.7031C565.357 64.8594 565.096 64.9375 564.758 64.9375C564.419 64.9375 564.146 64.8594 563.938 64.7031C563.742 64.5339 563.638 64.2995 563.625 64L562.688 50.1914C562.661 49.8529 562.714 49.6055 562.844 49.4492C562.974 49.293 563.189 49.2148 563.488 49.2148H566.027ZM564.758 68.7266C565.617 68.7266 566.236 68.8242 566.613 69.0195C567.004 69.2018 567.199 69.5143 567.199 69.957V72.9648C567.199 73.4076 567.004 73.7266 566.613 73.9219C566.236 74.1042 565.617 74.1953 564.758 74.1953C563.898 74.1953 563.273 74.1042 562.883 73.9219C562.505 73.7266 562.316 73.4076 562.316 72.9648V69.957C562.316 69.5143 562.505 69.2018 562.883 69.0195C563.273 68.8242 563.898 68.7266 564.758 68.7266Z" fill="black"/>
<path d="M560 225C560 233.284 566.716 240 575 240C583.284 240 590 233.284 590 225C590 216.716 583.284 210 575 210C566.716 210 560 216.716 560 225Z" fill="white" stroke="black" stroke-width="4"/>
<path d="M623 240C631.284 240 638 233.284 638 225C638 216.716 631.284 210 623 210C614.716 210 608 216.716 608 225C608 233.284 614.716 240 623 240Z" fill="white" stroke="black" stroke-width="4"/>
<path d="M624 226C624 222.686 621.314 220 618 220C614.686 220 612 222.686 612 226C612 229.314 614.686 232 618 232C621.314 232 624 229.314 624 226Z" fill="black"/>
<path d="M576 226C576 222.686 573.314 220 570 220C566.686 220 564 222.686 564 226C564 229.314 566.686 232 570 232C573.314 232 576 229.314 576 226Z" fill="black"/>
<rect y="317" width="800" height="4" fill="#6F3AFF"/>
<rect x="184" y="33" width="432" height="60" stroke="#6F3AFF" stroke-width="4"/>
</g>
<defs>
<clipPath id="clip0_992_2">
<rect width="800" height="400" fill="white"/>
</clipPath>
</defs>
</svg>
